<?xml version="1.0" standalone="no"?>
<!DOCTYPE svg PUBLIC "-//W3C//DTD SVG 20010904//EN"
 "http://www.w3.org/TR/2001/REC-SVG-20010904/DTD/svg10.dtd">
<svg version="1.0" xmlns="http://www.w3.org/2000/svg"
 width="500.000000pt" height="500.000000pt" viewBox="0 0 500.000000 500.000000"
 preserveAspectRatio="xMidYMid meet">

<g transform="translate(0.000000,500.000000) scale(0.100000,-0.100000)"
fill="#000000" stroke="none">
<path d="M2040 3931 c-119 -38 -283 -118 -392 -192 -120 -81 -314 -275 -389
-389 -122 -184 -210 -402 -245 -610 -25 -152 -15 -437 19 -575 74 -294 199
-517 407 -725 408 -408 1011 -545 1561 -354 223 77 390 183 565 358 224 225
353 466 416 781 18 87 22 144 22 275 0 248 -40 431 -139 637 -127 266 -304
469 -546 627 -95 61 -270 144 -363 170 -62 18 -89 16 -34 -3 l32 -11 -62 -63
c-105 -106 -233 -157 -394 -157 -102 0 -214 31 -291 80 -50 32 -147 123 -147
138 0 5 21 16 48 24 26 9 40 16 32 16 -8 0 -53 -12 -100 -27z m5 -20 c-5 -9
42 -58 115 -122 29 -25 135 -77 167 -82 12 -2 25 -6 29 -9 3 -4 12 -4 20 -1 8
3 14 1 14 -4 0 -5 49 -10 110 -10 62 0 110 3 110 9 0 5 8 8 18 7 9 -1 25 1 34
5 9 4 22 9 30 10 62 13 135 57 213 129 40 37 76 67 79 67 21 0 -3 -39 -59 -94
-147 -144 -374 -210 -556 -162 -14 4 -32 8 -40 9 -22 4 -160 77 -199 106 -19
14 -39 25 -43 23 -5 -1 -6 1 -3 6 3 5 -13 26 -34 47 -44 43 -50 61 -22 68 9 3
18 5 20 6 2 0 1 -3 -3 -8z m1435 -1088 c0 -409 -4 -662 -10 -685 -15 -53 -91
-133 -147 -154 -62 -24 -146 -24 -208 0 -42 16 -90 58 -297 264 l-248 246 0
-315 c0 -350 -4 -380 -65 -504 -71 -146 -235 -265 -390 -284 -278 -33 -522
141 -580 414 -10 46 -15 129 -15 243 l0 172 38 0 c107 0 211 -67 252 -161 12
-30 25 -87 29 -133 9 -92 25 -130 75 -174 77 -67 185 -67 262 0 71 62 68 46
74 523 5 418 6 431 27 471 24 44 75 93 126 121 46 25 179 25 227 -1 19 -10
146 -129 282 -264 l247 -246 3 435 3 434 26 55 c52 108 159 183 272 189 16 1
17 -36 17 -646z"/>
<path d="M2858 3953 c7 -3 16 -2 19 1 4 3 -2 6 -13 5 -11 0 -14 -3 -6 -6z"/>
</g>
</svg>
