<?xml version="1.0" standalone="no"?>
<!DOCTYPE svg PUBLIC "-//W3C//DTD SVG 20010904//EN"
 "http://www.w3.org/TR/2001/REC-SVG-20010904/DTD/svg10.dtd">
<svg version="1.0" xmlns="http://www.w3.org/2000/svg"
 width="4113.000000pt" height="1435.000000pt" viewBox="0 0 4113.000000 1435.000000"
 preserveAspectRatio="xMidYMid meet">

<g transform="translate(0.000000,1435.000000) scale(0.100000,-0.100000)"
fill="#000000" stroke="none">
<path d="M6448 14303 c7 -3 16 -2 19 1 4 3 -2 6 -13 5 -11 0 -14 -3 -6 -6z"/>
<path d="M6358 14293 c6 -2 18 -2 25 0 6 3 1 5 -13 5 -14 0 -19 -2 -12 -5z"/>
<path d="M7958 14293 c6 -2 18 -2 25 0 6 3 1 5 -13 5 -14 0 -19 -2 -12 -5z"/>
<path d="M6283 14283 c9 -2 23 -2 30 0 6 3 -1 5 -18 5 -16 0 -22 -2 -12 -5z"/>
<path d="M8033 14283 c9 -2 23 -2 30 0 6 3 -1 5 -18 5 -16 0 -22 -2 -12 -5z"/>
<path d="M6045 14254 c-1791 -289 -3389 -1227 -4510 -2649 -1152 -1463 -1685
-3308 -1495 -5180 164 -1612 892 -3141 2050 -4305 1006 -1011 2286 -1698 3681
-1974 834 -166 1736 -180 2574 -40 1107 184 2124 611 3042 1276 515 373 1046
887 1434 1388 698 901 1159 1910 1378 3015 183 925 178 1937 -15 2860 -282
1345 -932 2559 -1899 3544 -931 948 -2051 1596 -3330 1926 -280 72 -811 173
-853 162 -12 -3 -9 -5 6 -6 12 0 100 -17 195 -35 479 -96 971 -260 1391 -464
l138 -67 -57 -80 c-222 -311 -522 -600 -837 -808 -715 -473 -1586 -638 -2429
-461 -265 55 -495 136 -758 266 -361 179 -695 432 -959 728 -93 105 -272 338
-272 355 0 14 258 135 470 221 353 143 754 258 1160 333 149 27 74 24 -105 -5z
m5765 -5535 c0 -3009 0 -3042 -20 -3140 -50 -242 -152 -434 -325 -604 -225
-223 -520 -348 -851 -362 -294 -13 -566 71 -799 245 -33 25 -572 556 -1198
1181 l-1137 1136 0 -1437 c0 -1470 -1 -1533 -41 -1758 -168 -970 -888 -1786
-1796 -2035 -239 -66 -348 -79 -638 -80 -291 0 -391 11 -621 70 -586 150
-1106 520 -1446 1030 -158 237 -303 578 -357 840 -47 230 -50 287 -57 1173
l-7 842 155 0 c181 0 300 -17 445 -65 412 -137 710 -456 838 -900 42 -145 55
-246 65 -480 7 -193 12 -231 35 -310 31 -105 88 -223 149 -309 49 -69 169
-186 239 -235 73 -50 225 -119 312 -142 114 -29 294 -36 413 -15 426 74 760
449 811 909 7 65 11 679 11 1875 0 1956 -3 1856 61 2046 105 315 375 594 694
717 426 165 876 113 1230 -144 42 -30 524 -504 1207 -1186 l1138 -1135 3 2014
3 2015 22 97 c45 196 118 369 219 523 85 128 283 328 404 408 242 160 512 249
777 255 l62 2 0 -3041z"/>
</g>
</svg>
